<?xml version="1.0" encoding="UTF-8" standalone="no"?><!DOCTYPE svg PUBLIC "-//W3C//DTD SVG 1.1//EN" "http://www.w3.org/Graphics/SVG/1.1/DTD/svg11.dtd"><svg width="100%" height="100%" viewBox="0 0 64 64" version="1.1" xmlns="http://www.w3.org/2000/svg" xmlns:xlink="http://www.w3.org/1999/xlink" xml:space="preserve" xmlns:serif="http://www.serif.com/" style="fill-rule:evenodd;clip-rule:evenodd;stroke-linejoin:round;stroke-miterlimit:2;"><g id="Layer2"><circle cx="32" cy="32" r="32" style="fill:#222;"/></g><g id="Layer1"><path d="M49.616,13.889c-4.508,-4.635 -10.736,-7.502 -17.616,-7.502c-6.88,0 -13.108,2.867 -17.616,7.502c-4.508,4.635 -7.297,11.038 -7.297,18.111c0,7.073 2.789,13.476 7.297,18.111c4.508,4.635 10.736,7.501 17.616,7.501c6.88,0 13.108,-2.866 17.616,-7.501c4.508,-4.635 7.297,-11.038 7.297,-18.111c-0,-7.073 -2.789,-13.476 -7.297,-18.111Zm-17.616,-10.32c7.637,-0 14.55,3.182 19.555,8.327c5.004,5.145 8.099,12.253 8.099,20.104c0,7.851 -3.095,14.959 -8.099,20.104c-5.005,5.145 -11.918,8.327 -19.555,8.327c-7.637,0 -14.55,-3.182 -19.555,-8.327c-5.004,-5.145 -8.099,-12.253 -8.099,-20.104c-0,-7.851 3.095,-14.959 8.099,-20.104c5.005,-5.145 11.918,-8.327 19.555,-8.327Z" style="fill:#fff;"/><path d="M32,34.001c1.072,-0 1.947,-0.899 1.947,-2.001c-0,-1.102 -0.875,-2.001 -1.947,-2.001c-1.072,-0 -1.947,0.899 -1.947,2.001c0,1.102 0.875,2.001 1.947,2.001Z" style="fill:#fff;"/><path d="M30.848,32l2.304,-0l-0.774,-17.257l-0.738,-0.001l-0.792,17.258Z" style="fill:#fff;"/><path d="M32.576,30.974l-1.152,2.052l11.698,6.01l0.369,-0.656l-10.915,-7.406Z" style="fill:#fff;"/><path d="M32,7.475l0,-0c0.401,-0 0.729,0.337 0.729,0.749l-0,3.39c-0,0.413 -0.328,0.75 -0.729,0.75l-0,0c-0.402,0 -0.73,-0.337 -0.73,-0.75l0,-3.39c0,-0.412 0.328,-0.749 0.73,-0.749Z" style="fill:#fff;"/><path d="M55.855,32l0,-0c0,0.413 -0.328,0.75 -0.729,0.75l-3.298,-0c-0.401,-0 -0.729,-0.337 -0.729,-0.75l0,-0c0,-0.413 0.328,-0.75 0.729,-0.75l3.298,0c0.401,0 0.729,0.337 0.729,0.75Z" style="fill:#fff;"/><path d="M32,56.525c-0.402,0 -0.73,-0.337 -0.73,-0.75l0,-3.39c0,-0.412 0.328,-0.749 0.73,-0.749c0.401,-0 0.729,0.337 0.729,0.749l-0,3.39c-0,0.413 -0.328,0.75 -0.729,0.75Z" style="fill:#fff;"/><path d="M8.145,32l-0,-0c-0,-0.413 0.328,-0.75 0.729,-0.75l3.298,0c0.401,0 0.729,0.337 0.729,0.75l-0,-0c-0,0.412 -0.328,0.75 -0.729,0.75l-3.298,-0c-0.401,-0 -0.729,-0.338 -0.729,-0.75Z" style="fill:#fff;"/><path d="M43.495,10.504l0.865,0.513l-1.627,2.898l-0.865,-0.513l1.627,-2.898Z" style="fill:#fff;"/><path d="M52.41,19.293l0.499,0.889l-2.818,1.673l-0.5,-0.889l2.819,-1.673Z" style="fill:#fff;"/><path d="M52.909,43.818l-0.499,0.889l-2.819,-1.673l0.5,-0.889l2.818,1.673Z" style="fill:#fff;"/><path d="M44.36,52.983l-0.865,0.513l-1.627,-2.898l0.865,-0.513l1.627,2.898Z" style="fill:#fff;"/><path d="M20.505,53.496l-0.865,-0.513l1.627,-2.897l0.865,0.513l-1.627,2.897Z" style="fill:#fff;"/><path d="M11.59,44.707l-0.499,-0.889l2.818,-1.673l0.5,0.889l-2.819,1.673Z" style="fill:#fff;"/><path d="M11.091,20.182l0.499,-0.889l2.819,1.673l-0.5,0.889l-2.818,-1.673Z" style="fill:#fff;"/><path d="M19.64,11.017l0.865,-0.513l1.627,2.898l-0.865,0.513l-1.627,-2.898Z" style="fill:#fff;"/></g></svg>